<svg width="119" height="26" viewBox="0 0 119 26" fill="none" xmlns="http://www.w3.org/2000/svg">
<path d="M21.5568 9.875H16.5795C16.4886 9.23106 16.303 8.65909 16.0227 8.15909C15.7424 7.65151 15.3826 7.2197 14.9432 6.86364C14.5038 6.50757 13.9962 6.23485 13.4205 6.04545C12.8523 5.85606 12.2348 5.76136 11.5682 5.76136C10.3636 5.76136 9.31439 6.06061 8.42045 6.65909C7.52652 7.25 6.83333 8.11364 6.34091 9.25C5.84849 10.3788 5.60227 11.75 5.60227 13.3636C5.60227 15.0227 5.84849 16.4167 6.34091 17.5455C6.84091 18.6742 7.53788 19.5265 8.43182 20.1023C9.32576 20.678 10.3598 20.9659 11.5341 20.9659C12.1932 20.9659 12.803 20.8788 13.3636 20.7045C13.9318 20.5303 14.4356 20.2765 14.875 19.9432C15.3144 19.6023 15.678 19.1894 15.9659 18.7045C16.2614 18.2197 16.4659 17.6667 16.5795 17.0455L21.5568 17.0682C21.428 18.1364 21.1061 19.1667 20.5909 20.1591C20.0833 21.1439 19.3977 22.0265 18.5341 22.8068C17.678 23.5795 16.6553 24.1932 15.4659 24.6477C14.2841 25.0947 12.947 25.3182 11.4545 25.3182C9.37879 25.3182 7.52273 24.8485 5.88636 23.9091C4.25758 22.9697 2.9697 21.6098 2.02273 19.8295C1.08333 18.0492 0.613636 15.8939 0.613636 13.3636C0.613636 10.8258 1.09091 8.66667 2.04545 6.88636C3 5.10606 4.29545 3.75 5.93182 2.81818C7.56818 1.87879 9.40909 1.40909 11.4545 1.40909C12.803 1.40909 14.053 1.59848 15.2045 1.97727C16.3636 2.35606 17.3902 2.90909 18.2841 3.63636C19.178 4.35606 19.9053 5.23864 20.4659 6.28409C21.0341 7.32954 21.3977 8.52651 21.5568 9.875ZM24.9943 25V7.54545H29.8352V25H24.9943ZM27.4261 5.29545C26.7064 5.29545 26.089 5.05682 25.5739 4.57954C25.0663 4.0947 24.8125 3.51515 24.8125 2.84091C24.8125 2.17424 25.0663 1.60227 25.5739 1.125C26.089 0.640151 26.7064 0.397726 27.4261 0.397726C28.1458 0.397726 28.7595 0.640151 29.267 1.125C29.7822 1.60227 30.0398 2.17424 30.0398 2.84091C30.0398 3.51515 29.7822 4.0947 29.267 4.57954C28.7595 5.05682 28.1458 5.29545 27.4261 5.29545ZM38.554 14.9091V25H33.7131V7.54545H38.3267V10.625H38.5312C38.9176 9.60985 39.5653 8.80682 40.4744 8.21591C41.3835 7.61742 42.4858 7.31818 43.7812 7.31818C44.9934 7.31818 46.0502 7.58333 46.9517 8.11364C47.8532 8.64394 48.554 9.40151 49.054 10.3864C49.554 11.3636 49.804 12.5303 49.804 13.8864V25H44.9631V14.75C44.9706 13.6818 44.6979 12.8485 44.1449 12.25C43.5919 11.6439 42.8305 11.3409 41.8608 11.3409C41.2093 11.3409 40.6335 11.4811 40.1335 11.7614C39.6411 12.0417 39.2547 12.4508 38.9744 12.9886C38.7017 13.5189 38.5616 14.1591 38.554 14.9091ZM61.5739 25.3409C59.7784 25.3409 58.233 24.9773 56.9375 24.25C55.6496 23.5152 54.6572 22.4773 53.9602 21.1364C53.2633 19.7879 52.9148 18.1932 52.9148 16.3523C52.9148 14.5568 53.2633 12.9811 53.9602 11.625C54.6572 10.2689 55.6383 9.21212 56.9034 8.45454C58.1761 7.69697 59.6686 7.31818 61.3807 7.31818C62.5322 7.31818 63.6042 7.50379 64.5966 7.875C65.5966 8.23864 66.4678 8.78788 67.2102 9.52273C67.9602 10.2576 68.5436 11.1818 68.9602 12.2955C69.3769 13.4015 69.5852 14.697 69.5852 16.1818V17.5114H54.8466V14.5114H65.0284C65.0284 13.8144 64.8769 13.197 64.5739 12.6591C64.2708 12.1212 63.8504 11.7008 63.3125 11.3977C62.7822 11.0871 62.1648 10.9318 61.4602 10.9318C60.7254 10.9318 60.0739 11.1023 59.5057 11.4432C58.9451 11.7765 58.5057 12.2273 58.1875 12.7955C57.8693 13.3561 57.7064 13.9811 57.6989 14.6705V17.5227C57.6989 18.3864 57.858 19.1326 58.1761 19.7614C58.5019 20.3902 58.9602 20.875 59.5511 21.2159C60.142 21.5568 60.8428 21.7273 61.6534 21.7273C62.1913 21.7273 62.6837 21.6515 63.1307 21.5C63.5777 21.3485 63.9602 21.1212 64.2784 20.8182C64.5966 20.5152 64.839 20.1439 65.0057 19.7045L69.483 20C69.2557 21.0758 68.7898 22.0152 68.0852 22.8182C67.3883 23.6136 66.4867 24.2348 65.3807 24.6818C64.2822 25.1212 63.0133 25.3409 61.5739 25.3409ZM72.8352 25V1.72727H82.017C83.7746 1.72727 85.2746 2.04167 86.517 2.67045C87.767 3.29167 88.7178 4.17424 89.3693 5.31818C90.0284 6.45454 90.358 7.79167 90.358 9.32955C90.358 10.875 90.0246 12.2045 89.358 13.3182C88.6913 14.4242 87.7254 15.2727 86.4602 15.8636C85.2027 16.4545 83.6799 16.75 81.892 16.75H75.7443V12.7955H81.0966C82.036 12.7955 82.8163 12.6667 83.4375 12.4091C84.0587 12.1515 84.5208 11.7652 84.8239 11.25C85.1345 10.7348 85.2898 10.0947 85.2898 9.32955C85.2898 8.55682 85.1345 7.9053 84.8239 7.375C84.5208 6.8447 84.0549 6.44318 83.4261 6.17045C82.8049 5.89015 82.0208 5.75 81.0739 5.75H77.7557V25H72.8352ZM85.4034 14.4091L91.1875 25H85.7557L80.0966 14.4091H85.4034ZM93.7443 25V7.54545H98.5852V25H93.7443ZM96.1761 5.29545C95.4564 5.29545 94.839 5.05682 94.3239 4.57954C93.8163 4.0947 93.5625 3.51515 93.5625 2.84091C93.5625 2.17424 93.8163 1.60227 94.3239 1.125C94.839 0.640151 95.4564 0.397726 96.1761 0.397726C96.8958 0.397726 97.5095 0.640151 98.017 1.125C98.5322 1.60227 98.7898 2.17424 98.7898 2.84091C98.7898 3.51515 98.5322 4.0947 98.017 4.57954C97.5095 5.05682 96.8958 5.29545 96.1761 5.29545ZM110.349 25.3409C108.584 25.3409 107.058 24.9659 105.77 24.2159C104.49 23.4583 103.501 22.4053 102.804 21.0568C102.107 19.7008 101.759 18.1288 101.759 16.3409C101.759 14.5379 102.107 12.9621 102.804 11.6136C103.501 10.2576 104.49 9.20454 105.77 8.45454C107.058 7.69697 108.584 7.31818 110.349 7.31818C112.115 7.31818 113.637 7.69697 114.918 8.45454C116.205 9.20454 117.198 10.2576 117.895 11.6136C118.592 12.9621 118.94 14.5379 118.94 16.3409C118.94 18.1288 118.592 19.7008 117.895 21.0568C117.198 22.4053 116.205 23.4583 114.918 24.2159C113.637 24.9659 112.115 25.3409 110.349 25.3409ZM110.372 21.5909C111.175 21.5909 111.846 21.3636 112.384 20.9091C112.921 20.447 113.327 19.8182 113.599 19.0227C113.88 18.2273 114.02 17.322 114.02 16.3068C114.02 15.2917 113.88 14.3864 113.599 13.5909C113.327 12.7955 112.921 12.1667 112.384 11.7045C111.846 11.2424 111.175 11.0114 110.372 11.0114C109.562 11.0114 108.88 11.2424 108.327 11.7045C107.781 12.1667 107.368 12.7955 107.088 13.5909C106.815 14.3864 106.679 15.2917 106.679 16.3068C106.679 17.322 106.815 18.2273 107.088 19.0227C107.368 19.8182 107.781 20.447 108.327 20.9091C108.88 21.3636 109.562 21.5909 110.372 21.5909Z" fill="white"/>
</svg>
